<mxfile host="app.diagrams.net" modified="2021-07-23T09:45:53.187Z" agent="5.0 (Windows NT 10.0; Win64; x64) AppleWebKit/537.36 (KHTML, like Gecko) Chrome/91.0.4472.164 Safari/537.36" etag="Uwff9L9i2LUxQZWR6abv" version="14.9.2" type="github">
  <diagram id="OoS4qDb96yLiwJrLszlg" name="Page-1">
    <mxGraphModel dx="782" dy="379" grid="1" gridSize="10" guides="1" tooltips="1" connect="1" arrows="1" fold="1" page="1" pageScale="1" pageWidth="850" pageHeight="1100" math="0" shadow="0">
      <root>
        <mxCell id="0" />
        <mxCell id="1" parent="0" />
        <mxCell id="2zhz1tAdy2dQ1FJDt-JB-14" value="" style="edgeStyle=orthogonalEdgeStyle;rounded=0;orthogonalLoop=1;jettySize=auto;html=1;" parent="1" source="2zhz1tAdy2dQ1FJDt-JB-1" target="2zhz1tAdy2dQ1FJDt-JB-8" edge="1">
          <mxGeometry relative="1" as="geometry" />
        </mxCell>
        <mxCell id="2zhz1tAdy2dQ1FJDt-JB-1" value="" style="outlineConnect=0;dashed=0;verticalLabelPosition=bottom;verticalAlign=top;align=center;html=1;shape=mxgraph.aws3.ec2;fillColor=#F58534;gradientColor=none;" parent="1" vertex="1">
          <mxGeometry x="480" y="237.5" width="76.5" height="93" as="geometry" />
        </mxCell>
        <mxCell id="2zhz1tAdy2dQ1FJDt-JB-12" value="" style="edgeStyle=orthogonalEdgeStyle;rounded=0;orthogonalLoop=1;jettySize=auto;html=1;" parent="1" source="2zhz1tAdy2dQ1FJDt-JB-5" target="2zhz1tAdy2dQ1FJDt-JB-7" edge="1">
          <mxGeometry relative="1" as="geometry" />
        </mxCell>
        <mxCell id="2zhz1tAdy2dQ1FJDt-JB-5" value="" style="shape=image;html=1;verticalAlign=top;verticalLabelPosition=bottom;labelBackgroundColor=#ffffff;imageAspect=0;aspect=fixed;image=https://cdn0.iconfinder.com/data/icons/social-network-9/50/29-128.png" parent="1" vertex="1">
          <mxGeometry x="10" y="220" width="128" height="128" as="geometry" />
        </mxCell>
        <mxCell id="2zhz1tAdy2dQ1FJDt-JB-13" value="" style="edgeStyle=orthogonalEdgeStyle;rounded=0;orthogonalLoop=1;jettySize=auto;html=1;" parent="1" source="2zhz1tAdy2dQ1FJDt-JB-7" target="2zhz1tAdy2dQ1FJDt-JB-1" edge="1">
          <mxGeometry relative="1" as="geometry" />
        </mxCell>
        <mxCell id="2zhz1tAdy2dQ1FJDt-JB-7" value="" style="shape=image;html=1;verticalAlign=top;verticalLabelPosition=bottom;labelBackgroundColor=#ffffff;imageAspect=0;aspect=fixed;image=https://cdn4.iconfinder.com/data/icons/logos-brands-5/24/jenkins-128.png" parent="1" vertex="1">
          <mxGeometry x="260" y="220" width="128" height="128" as="geometry" />
        </mxCell>
        <mxCell id="2zhz1tAdy2dQ1FJDt-JB-8" value="" style="aspect=fixed;html=1;points=[];align=center;image;fontSize=12;image=img/lib/mscae/Docker.svg;" parent="1" vertex="1">
          <mxGeometry x="670" y="247.1" width="90" height="73.8" as="geometry" />
        </mxCell>
        <mxCell id="2zhz1tAdy2dQ1FJDt-JB-11" value="" style="edgeStyle=orthogonalEdgeStyle;rounded=0;orthogonalLoop=1;jettySize=auto;html=1;" parent="1" source="2zhz1tAdy2dQ1FJDt-JB-10" target="2zhz1tAdy2dQ1FJDt-JB-5" edge="1">
          <mxGeometry relative="1" as="geometry" />
        </mxCell>
        <mxCell id="2zhz1tAdy2dQ1FJDt-JB-10" value="" style="shape=image;html=1;verticalAlign=top;verticalLabelPosition=bottom;labelBackgroundColor=#ffffff;imageAspect=0;aspect=fixed;image=https://cdn2.iconfinder.com/data/icons/crystalproject/128x128/apps/personal.png" parent="1" vertex="1">
          <mxGeometry x="10" y="10" width="128" height="128" as="geometry" />
        </mxCell>
        <mxCell id="2zhz1tAdy2dQ1FJDt-JB-15" value="&lt;b&gt;Nodejs code pushed by developers&lt;/b&gt;" style="text;html=1;strokeColor=none;fillColor=none;align=center;verticalAlign=middle;whiteSpace=wrap;rounded=0;" parent="1" vertex="1">
          <mxGeometry x="90" y="160" width="100" height="30" as="geometry" />
        </mxCell>
        <mxCell id="2zhz1tAdy2dQ1FJDt-JB-16" value="&lt;b&gt;deploy&lt;/b&gt;" style="text;html=1;strokeColor=none;fillColor=none;align=center;verticalAlign=middle;whiteSpace=wrap;rounded=0;" parent="1" vertex="1">
          <mxGeometry x="410" y="237.5" width="40" height="20" as="geometry" />
        </mxCell>
        <mxCell id="2zhz1tAdy2dQ1FJDt-JB-17" value="&lt;b&gt;container&lt;/b&gt;" style="text;html=1;strokeColor=none;fillColor=none;align=center;verticalAlign=middle;whiteSpace=wrap;rounded=0;" parent="1" vertex="1">
          <mxGeometry x="590" y="247.1" width="40" height="20" as="geometry" />
        </mxCell>
        <mxCell id="2zhz1tAdy2dQ1FJDt-JB-18" value="&lt;b&gt;continuous build&lt;/b&gt;" style="text;html=1;strokeColor=none;fillColor=none;align=center;verticalAlign=middle;whiteSpace=wrap;rounded=0;" parent="1" vertex="1">
          <mxGeometry x="160" y="247.1" width="80" height="20" as="geometry" />
        </mxCell>
      </root>
    </mxGraphModel>
  </diagram>
</mxfile>
